<svg width="24" height="24" viewBox="0 0 24 24" fill="none" xmlns="http://www.w3.org/2000/svg">
  <path fill-rule="evenodd" clip-rule="evenodd" d="M3.27793 16.4538C3.39789 16.2876 3.67345 16.0196 3.67345 16.0196C4.64858 14.9792 7.07394 13.4121 8.30444 12.9089C8.30444 12.8984 9.03608 12.5999 9.38409 12.5882H9.43041C9.96371 12.5882 10.4626 12.8867 10.7179 13.3665C10.8232 13.5643 10.9211 14.0454 10.9683 14.2776C10.984 14.3544 10.9941 14.404 10.997 14.4069C11.1016 15.0927 11.1704 16.1449 11.1704 17.3C11.1704 18.5124 11.1016 19.6102 10.9733 20.2855C10.9733 20.2972 10.8462 20.9139 10.7642 21.1199C10.6372 21.4172 10.4044 21.6688 10.1145 21.8291C9.88294 21.9438 9.63827 22 9.38409 22C9.11685 21.9895 8.618 21.8174 8.42083 21.7378C7.12026 21.2346 4.6367 19.588 3.68532 18.5815C3.57922 18.4769 3.46806 18.3579 3.39071 18.2752C3.34945 18.231 3.3178 18.1971 3.30169 18.1812C3.10452 17.9296 3 17.6206 3 17.2883C3 16.9922 3.09264 16.6949 3.27793 16.4538ZM10.1618 5.77138C10.6856 5.77138 11.1096 6.18918 11.1096 6.7053C11.1096 7.22141 10.6856 7.63922 10.1618 7.63922L5.58295 7.89669C4.91543 7.89669 4.375 7.36302 4.375 6.7053C4.375 6.04757 4.91543 5.51508 5.58295 5.51508L10.1618 5.77138ZM13.2356 2.88008C13.3639 2.58282 13.5955 2.3312 13.8853 2.17087C14.1169 2.05618 14.3616 2 14.617 2C14.883 2.01053 15.3831 2.18257 15.5802 2.26332C16.8797 2.76539 19.3633 4.41321 20.3158 5.41852C20.4194 5.52134 20.5284 5.63812 20.6055 5.72071L20.6055 5.72078C20.6486 5.76694 20.6817 5.80241 20.6983 5.81878C20.8955 6.07157 21 6.37936 21 6.71056C21 7.009 20.9074 7.30626 20.7209 7.54618C20.6021 7.71236 20.3265 7.98037 20.3265 7.98037C19.3526 9.02196 16.926 10.5879 15.6954 11.0911C15.6954 11.1028 14.965 11.4001 14.617 11.4118H14.5706C14.0361 11.4118 13.5373 11.1145 13.2819 10.6335C13.1777 10.4361 13.0796 9.95649 13.0319 9.72383L13.0319 9.72381C13.016 9.64614 13.0058 9.59601 13.0028 9.59308C12.8983 8.90727 12.8294 7.85514 12.8294 6.70003C12.8294 5.48757 12.8983 4.38981 13.0265 3.71453C13.0265 3.70399 13.1536 3.08606 13.2356 2.88008ZM12.8905 17.2945C12.8905 17.8106 13.3146 18.2284 13.8383 18.2284L18.4171 18.4859C19.0846 18.4859 19.625 17.9522 19.625 17.2945C19.625 16.6367 19.0846 16.1042 18.4171 16.1042L13.8383 16.3605C13.3146 16.3605 12.8905 16.7784 12.8905 17.2945Z" fill="#B7B6CF"/>
</svg>
