<svg width="21" height="23" viewBox="0 0 21 23" fill="none" xmlns="http://www.w3.org/2000/svg">
<path d="M10.2934 13.606C12.0385 13.606 13.4531 12.1914 13.4531 10.4464C13.4531 8.70132 12.0385 7.2867 10.2934 7.2867C8.54841 7.2867 7.13379 8.70132 7.13379 10.4464C7.13379 12.1914 8.54841 13.606 10.2934 13.606Z" fill="#9597B1"/>
<path d="M5.38043 17.312C4.8696 18.1101 4.59961 19.0329 4.59961 19.9805V23.0004H15.9857V19.9805C15.9857 19.0329 15.7158 18.1101 15.2049 17.3119C14.2905 15.8831 12.7318 15.0301 11.0354 15.0301H9.54998C7.85359 15.0301 6.29487 15.8831 5.38043 17.312Z" fill="#9597B1"/>
<path d="M20.4951 12.3053V8.18978L18.0072 7.59747C17.895 7.26909 17.7615 6.94732 17.608 6.63507L18.9486 4.45649L16.0385 1.54637L13.8599 2.88707C13.5477 2.73354 13.226 2.60005 12.8976 2.48783L12.3053 0H8.18982L7.59747 2.48783C7.26909 2.60005 6.94732 2.73354 6.63511 2.88707L4.45653 1.54637L1.54637 4.45649L2.88702 6.63507C2.73349 6.94732 2.6 7.26909 2.48778 7.59747L0 8.18973V12.3052L2.48783 12.8976C2.60005 13.226 2.73354 13.5477 2.88707 13.86L1.54009 16.0488L3.5579 17.9815C3.72199 17.4897 3.94694 17.0173 4.23 16.575C5.01359 15.3507 6.16824 14.4583 7.49754 14.0038C6.44446 13.1744 5.76713 11.8882 5.76713 10.4468C5.76713 7.95117 7.7975 5.92079 10.2931 5.92079C12.7887 5.92079 14.8191 7.95117 14.8191 10.4468C14.8191 11.8882 14.1418 13.1744 13.0887 14.0038C14.418 14.4583 15.5726 15.3507 16.3562 16.575C16.6519 17.0371 16.8836 17.5321 17.0494 18.0477C17.0493 18.0476 17.0493 18.0474 17.0493 18.0474L18.9388 16.0225L17.6081 13.8601C17.7616 13.5478 17.8951 13.226 18.0073 12.8977L20.4951 12.3053Z" fill="#9597B1"/>
</svg>

