<svg width="25" height="24" viewBox="0 0 25 24" fill="none" xmlns="http://www.w3.org/2000/svg">
<path d="M6.75 3H18.75C20.95 3 22.75 4.8 22.75 7C22.75 8.7 21.75 10.1 20.25 10.7V7C20.25 6.6 20.05 6.2 19.85 5.9C19.65 5.6 19.15 5.5 18.75 5.5H6.75C6.35 5.5 5.95 5.7 5.65 5.9C5.35 6.1 5.25 6.6 5.25 7V10.7C3.75 10.1 2.75 8.7 2.75 7C2.75 4.8 4.55 3 6.75 3Z" fill="white"/>
<path fill-rule="evenodd" clip-rule="evenodd" d="M18.75 7V19C18.75 20.1 17.85 21 16.75 21H8.75C7.65 21 6.75 20.1 6.75 19V7H18.75ZM11.25 14.5L11.95 15.2V11C11.95 10.6 12.25 10.2 12.75 10.2C13.25 10.2 13.55 10.5 13.55 11V15.2L14.25 14.5C14.55 14.2 15.05 14.2 15.35 14.5C15.65 14.8 15.65 15.3 15.35 15.6L14.05 16.9C13.35 17.6 12.25 17.6 11.55 16.9L10.25 15.6C9.95 15.3 9.95 14.8 10.25 14.5C10.55 14.2 10.95 14.2 11.25 14.5Z" fill="white"/>
</svg>
