<svg width="25" height="24" viewBox="0 0 25 24" fill="none" xmlns="http://www.w3.org/2000/svg">
<path d="M20.4882 5.16938C18.757 3.37856 16.5164 2.23983 14.0847 1.89342L14.7778 1.20033C15.0524 0.925737 15.0524 0.480565 14.7778 0.205971C14.5032 -0.0685757 14.058 -0.0685757 13.7834 0.205971L12.0028 1.98656C11.7282 2.26111 11.7282 2.70633 12.0028 2.98092L13.7834 4.76152C13.9206 4.89882 14.1006 4.96749 14.2805 4.96749C14.4604 4.96749 14.6404 4.89882 14.7777 4.76152C15.0523 4.48697 15.0523 4.04175 14.7777 3.76716L14.3795 3.36896C16.3113 3.747 18.0832 4.70485 19.4771 6.14672C21.2351 7.96528 22.2033 10.3602 22.2033 12.8903C22.2034 18.2408 17.8504 22.5938 12.5 22.5938C7.14951 22.5938 2.79651 18.2408 2.79651 12.8903C2.79651 10.8487 3.42309 8.89571 4.60856 7.24252C5.76942 5.6236 7.36973 4.41558 9.23662 3.74911C9.60234 3.61852 9.79293 3.21624 9.66238 2.85047C9.53184 2.48475 9.12946 2.29416 8.76374 2.42471C6.6261 3.18788 4.79409 4.5705 3.4657 6.42305C2.10792 8.31661 1.39026 10.553 1.39026 12.8904C1.39026 15.8579 2.54587 18.6478 4.64423 20.7461C6.74259 22.8443 9.53245 24 12.5 24C15.4675 24 18.2573 22.8444 20.3557 20.7461C22.4541 18.6477 23.6097 15.8579 23.6097 12.8903C23.6097 9.99356 22.5011 7.25152 20.4882 5.16938Z" fill="white"/>
<path d="M5.27576 12.8903C5.27576 16.8737 8.51651 20.1145 12.4999 20.1145C16.4833 20.1145 19.7241 16.8737 19.7241 12.8903C19.7241 8.90695 16.4833 5.66611 12.4999 5.66611C8.51646 5.66611 5.27576 8.9069 5.27576 12.8903ZM12.9316 13.5162C11.9194 13.1584 11.333 12.8764 10.9076 12.5427C10.384 12.132 10.1443 11.4227 10.2821 10.6917C10.4315 9.89869 10.9845 9.26737 11.7254 9.0442C11.7356 9.04111 11.7457 9.03862 11.7559 9.03562V8.7525C11.7559 8.36419 12.0708 8.04937 12.4591 8.04937C12.8474 8.04937 13.1622 8.36419 13.1622 8.7525V8.99086C13.6531 9.10584 13.9958 9.33023 14.1343 9.43378C14.4453 9.66633 14.509 10.1069 14.2765 10.418C14.0439 10.729 13.6034 10.7926 13.2923 10.5601C13.1434 10.4489 12.7325 10.2094 12.131 10.3906C11.7756 10.4977 11.6837 10.8474 11.664 10.9521C11.625 11.1588 11.6698 11.3534 11.7754 11.4362C12.1432 11.7246 12.8031 11.9793 13.4002 12.1903C14.4924 12.5764 15.0997 13.5882 14.9114 14.708C14.819 15.2578 14.5424 15.7679 14.1326 16.1445C13.8507 16.4034 13.5222 16.5876 13.1622 16.6914V17.0281C13.1622 17.4164 12.8474 17.7312 12.4591 17.7312C12.0708 17.7312 11.7559 17.4164 11.7559 17.0281V16.7606C11.2882 16.7056 10.8979 16.5615 10.3729 16.2181C10.0479 16.0056 9.95683 15.5698 10.1694 15.2448C10.382 14.9197 10.8178 14.8287 11.1428 15.0413C11.6295 15.3597 11.8135 15.389 12.4544 15.3845C13.0854 15.3803 13.4515 14.91 13.5246 14.4748C13.5604 14.2623 13.5742 13.7433 12.9316 13.5162Z" fill="white"/>
</svg>
 