<svg width="25" height="24" viewBox="0 0 25 24" fill="none" xmlns="http://www.w3.org/2000/svg">
<g clip-path="url(#clip0_162_1343)">
<path d="M18.9362 13.372C18.0281 13.3716 17.1351 13.6041 16.3425 14.0472C15.5499 14.4904 14.8842 15.1294 14.409 15.9033L10.5282 13.8998C10.9943 12.6771 10.9943 11.3257 10.5282 10.103L14.409 8.09952C15.1056 9.23104 16.2015 10.0598 17.4799 10.4219C18.7583 10.784 20.1261 10.6529 21.3125 10.0547C22.499 9.45649 23.4176 8.43467 23.8866 7.19149C24.3556 5.94831 24.3408 4.57436 23.8452 3.34154C23.3496 2.10873 22.4092 1.1069 21.2102 0.534316C20.0112 -0.0382666 18.6409 -0.139875 17.3706 0.249599C16.1002 0.639073 15.0224 1.49125 14.3503 2.63748C13.6783 3.7837 13.461 5.14045 13.7415 6.43921L9.61887 8.56781C8.91544 7.73706 7.97386 7.14236 6.92146 6.86415C5.86906 6.58593 4.7566 6.63762 3.73452 7.01221C2.71245 7.3868 1.83006 8.06623 1.20669 8.95862C0.583313 9.85101 0.249023 10.9133 0.249023 12.0019C0.249023 13.0904 0.583313 14.1527 1.20669 15.0451C1.83006 15.9375 2.71245 16.6169 3.73452 16.9915C4.7566 17.3661 5.86906 17.4178 6.92146 17.1396C7.97386 16.8614 8.91544 16.2667 9.61887 15.4359L13.7415 17.5645C13.5091 18.639 13.6156 19.759 14.0463 20.7704C14.4771 21.7818 15.2109 22.6347 16.1466 23.2116C17.0823 23.7886 18.1739 24.0611 19.271 23.9917C20.3681 23.9224 21.4167 23.5145 22.2723 22.8242C23.1279 22.134 23.7484 21.1955 24.0483 20.1379C24.3481 19.0803 24.3127 17.9557 23.9468 16.9191C23.5808 15.8825 22.9024 14.9849 22.0051 14.35C21.1077 13.7151 20.0355 13.374 18.9362 13.3739V13.372ZM18.9034 1.81312C19.2127 1.81303 19.515 1.90467 19.7722 2.07645C20.0294 2.24823 20.2298 2.49243 20.3482 2.77816C20.4665 3.06388 20.4974 3.3783 20.4371 3.68161C20.3767 3.98493 20.2277 4.26352 20.0089 4.48214C19.7902 4.70076 19.5115 4.84958 19.2082 4.90978C18.9048 4.96998 18.5904 4.93885 18.3048 4.82032C18.0191 4.7018 17.775 4.50121 17.6034 4.24394C17.4318 3.98666 17.3403 3.68426 17.3406 3.37499C17.3408 2.96067 17.5056 2.56341 17.7987 2.27052C18.0917 1.97764 18.4891 1.81312 18.9034 1.81312ZM16.3548 6.38577V6.37874C16.3782 6.15957 16.4764 5.95513 16.6328 5.79984C16.7897 5.64244 16.9955 5.54323 17.2164 5.51859C17.5393 5.48437 18.5232 5.46562 19.0229 5.46609C19.5226 5.46656 20.3256 5.48437 20.649 5.51859C20.8697 5.54333 21.0754 5.64253 21.2322 5.79984C21.3885 5.95536 21.4867 6.15992 21.5101 6.37921V6.38577C21.5263 6.52315 21.5345 6.66135 21.5345 6.79968C21.5353 6.96686 21.5273 7.13397 21.5106 7.30031V7.30687C21.4841 7.53704 21.3876 7.75353 21.234 7.92702C21.0829 8.10368 20.8789 8.22709 20.6523 8.27906C20.3298 8.35218 19.5273 8.4239 19.0239 8.41968C18.5218 8.43234 17.5361 8.35406 17.2136 8.27906C16.987 8.2269 16.7831 8.10353 16.6318 7.92702C16.4784 7.75348 16.3818 7.53702 16.3553 7.30687V7.29984C16.3383 7.13385 16.3331 6.96687 16.3398 6.80015C16.3329 6.66185 16.338 6.52322 16.3548 6.38577ZM5.53137 8.49937C5.84047 8.49937 6.14262 8.59103 6.39962 8.76275C6.65663 8.93447 6.85694 9.17855 6.97522 9.46412C7.09351 9.74969 7.12446 10.0639 7.06416 10.3671C7.00385 10.6702 6.85501 10.9487 6.63645 11.1673C6.41788 11.3858 6.13942 11.5347 5.83626 11.595C5.53311 11.6553 5.21888 11.6243 4.93331 11.506C4.64774 11.3877 4.40367 11.1874 4.23194 10.9304C4.06022 10.6734 3.96856 10.3713 3.96856 10.0622C3.96856 9.6477 4.13321 9.25019 4.4263 8.95711C4.71938 8.66402 5.11689 8.49937 5.53137 8.49937ZM8.1395 13.9861V13.9927C8.11312 14.223 8.01657 14.4396 7.86294 14.6133C7.71164 14.7898 7.50776 14.9132 7.28122 14.9653C6.95872 15.038 6.15622 15.1102 5.65278 15.1059C5.15075 15.1186 4.16497 15.0408 3.84247 14.9653C3.61577 14.9135 3.41178 14.7901 3.26075 14.6133C3.1072 14.4398 3.01065 14.2233 2.98418 13.9931V13.9866C2.96717 13.8201 2.962 13.6526 2.96872 13.4855C2.96202 13.3473 2.96719 13.2088 2.98418 13.0716V13.065C3.00765 12.8457 3.10579 12.6411 3.26215 12.4856C3.41901 12.3282 3.62488 12.229 3.84575 12.2044C4.16872 12.1701 5.15262 12.1514 5.65231 12.1514C6.152 12.1514 6.95497 12.1701 7.2784 12.2044C7.49916 12.2289 7.70491 12.3281 7.86153 12.4856C8.01796 12.6409 8.11612 12.8453 8.1395 13.0645V13.0716C8.15569 13.2088 8.16383 13.3468 8.16387 13.485C8.16456 13.6523 8.15642 13.8196 8.1395 13.9861ZM18.9034 15.1875C19.2127 15.1874 19.5151 15.2791 19.7723 15.4509C20.0295 15.6227 20.2299 15.867 20.3482 16.1528C20.4666 16.4385 20.4975 16.753 20.437 17.0563C20.3765 17.3597 20.2275 17.6383 20.0086 17.8568C19.7898 18.0754 19.511 18.2242 19.2076 18.2843C18.9042 18.3444 18.5898 18.3131 18.3041 18.1944C18.0185 18.0758 17.7745 17.875 17.6029 17.6176C17.4314 17.3602 17.3401 17.0577 17.3406 16.7484C17.3411 16.3343 17.506 15.9372 17.799 15.6446C18.092 15.3519 18.4892 15.1875 18.9034 15.1875ZM21.5115 20.6719V20.6784C21.4851 20.9086 21.3885 21.1251 21.235 21.2986C21.0838 21.4752 20.8799 21.5987 20.6532 21.6506C20.3307 21.7237 19.5282 21.7955 19.0248 21.7912C18.5228 21.8039 17.537 21.7256 17.2145 21.6506C16.9879 21.5985 16.7841 21.4751 16.6328 21.2986C16.4793 21.125 16.3828 20.9086 16.3562 20.6784V20.6719C16.3392 20.5059 16.3341 20.3389 16.3407 20.1722C16.3341 20.034 16.3392 19.8955 16.3562 19.7583V19.7512C16.3792 19.532 16.4771 19.3274 16.6332 19.1719C16.7906 19.0141 16.9972 18.9148 17.2187 18.8906C17.5417 18.8564 18.5256 18.8377 19.0253 18.8381C19.525 18.8386 20.3279 18.8564 20.6514 18.8906C20.8721 18.9154 21.0777 19.0146 21.2345 19.1719C21.3909 19.3274 21.489 19.532 21.5125 19.7512V19.7578C21.5287 19.8952 21.5368 20.0334 21.5368 20.1717C21.5372 20.3388 21.5287 20.5057 21.5115 20.6719Z" fill="white"/>
</g>
<defs>
<clipPath id="clip0_162_1343">
<rect width="24" height="24" fill="white" transform="translate(0.25)"/>
</clipPath>
</defs>
</svg>
 