<svg width="25" height="24" viewBox="0 0 25 24" fill="none" xmlns="http://www.w3.org/2000/svg">
<path fill-rule="evenodd" clip-rule="evenodd" d="M12.25 22C17.7728 22 22.25 17.5228 22.25 12C22.25 6.47715 17.7728 2 12.25 2C6.72715 2 2.25 6.47715 2.25 12C2.25 17.5228 6.72715 22 12.25 22ZM13 9C13 8.58579 12.6642 8.25 12.25 8.25C11.8358 8.25 11.5 8.58579 11.5 9L11.5 11.25H9.25C8.83579 11.25 8.5 11.5858 8.5 12C8.5 12.4142 8.83579 12.75 9.25 12.75H11.5V15C11.5 15.4142 11.8358 15.75 12.25 15.75C12.6642 15.75 13 15.4142 13 15L13 12.75H15.25C15.6642 12.75 16 12.4142 16 12C16 11.5858 15.6642 11.25 15.25 11.25H13V9Z" fill="white"/>
</svg>
