<svg width="25" height="24" viewBox="0 0 25 24" fill="none" xmlns="http://www.w3.org/2000/svg">
<path d="M20.5 13.75C20.5 13.3358 20.1642 13 19.75 13H16.75C16.3358 13 16 13.3358 16 13.75V20.5H14.5V4.25C14.5 3.52169 14.4984 3.05091 14.4518 2.70403C14.408 2.37872 14.3374 2.27676 14.2803 2.21967C14.2232 2.16258 14.1213 2.09197 13.796 2.04823C13.4491 2.00159 12.9783 2 12.25 2C11.5217 2 11.0509 2.00159 10.704 2.04823C10.3787 2.09197 10.2768 2.16258 10.2197 2.21967C10.1626 2.27676 10.092 2.37872 10.0482 2.70403C10.0016 3.05091 10 3.52169 10 4.25V20.5H8.5V8.75C8.5 8.33579 8.16421 8 7.75 8H4.75C4.33579 8 4 8.33579 4 8.75V20.5H2.5H2.25C1.83579 20.5 1.5 20.8358 1.5 21.25C1.5 21.6642 1.83579 22 2.25 22H22.25C22.6642 22 23 21.6642 23 21.25C23 20.8358 22.6642 20.5 22.25 20.5H22H20.5V13.75Z" fill="white"/>
</svg>
