<svg width="25" height="24" viewBox="0 0 25 24" fill="none" xmlns="http://www.w3.org/2000/svg">
<path d="M12 7.84748C11.0641 8.10339 10.5 8.82154 10.5 9.5C10.5 10.1785 11.0641 10.8966 12 11.1525V7.84748Z" fill="white"/>
<path d="M13.5 12.8475V16.1525C14.4359 15.8966 15 15.1785 15 14.5C15 13.8215 14.4359 13.1034 13.5 12.8475Z" fill="white"/>
<path fill-rule="evenodd" clip-rule="evenodd" d="M22.75 12C22.75 17.5228 18.2728 22 12.75 22C7.22715 22 2.75 17.5228 2.75 12C2.75 6.47715 7.22715 2 12.75 2C18.2728 2 22.75 6.47715 22.75 12ZM12.75 5.25C13.1642 5.25 13.5 5.58579 13.5 6V6.31673C15.1304 6.60867 16.5 7.83361 16.5 9.5C16.5 9.91421 16.1642 10.25 15.75 10.25C15.3358 10.25 15 9.91421 15 9.5C15 8.82154 14.4359 8.10339 13.5 7.84748V11.3167C15.1304 11.6087 16.5 12.8336 16.5 14.5C16.5 16.1664 15.1304 17.3913 13.5 17.6833V18C13.5 18.4142 13.1642 18.75 12.75 18.75C12.3358 18.75 12 18.4142 12 18V17.6833C10.3696 17.3913 9 16.1664 9 14.5C9 14.0858 9.33579 13.75 9.75 13.75C10.1642 13.75 10.5 14.0858 10.5 14.5C10.5 15.1785 11.0641 15.8966 12 16.1525V12.6833C10.3696 12.3913 9 11.1664 9 9.5C9 7.83361 10.3696 6.60867 12 6.31673V6C12 5.58579 12.3358 5.25 12.75 5.25Z" fill="white"/>
</svg>
