<?xml version="1.0" encoding="UTF-8"?>
<svg width="736px" height="195px" viewBox="0 0 736 195" version="1.1" xmlns="http://www.w3.org/2000/svg" xmlns:xlink="http://www.w3.org/1999/xlink">
    <title>image (1)</title>
    <g id="Page-1" stroke="none" stroke-width="1" fill="none" fill-rule="evenodd">
        <g id="User-Detail" transform="translate(-424.000000, -709.000000)">
            <g id="image-(1)" transform="translate(424.049513, 709.957083)">
                <path d="M84.7004821,186.959579 C84.7004821,183.542907 87.6171541,180.751248 91.2421568,180.751248 C94.8254848,180.751248 97.7421568,183.542907 97.7421568,186.959579 C97.7421568,190.417915 94.8254848,193.209573 91.2004928,193.209573 C87.6171541,193.209573 84.7004821,190.584581 84.7004821,186.959579 Z M55.2551776,64.8759085 C55.2551776,62.3876175 57.2356496,60.5087145 59.8254901,60.5087145 C62.4153306,60.5087145 64.3958026,62.3876175 64.3958026,64.8759085 C64.3450116,66.0438675 63.8879836,67.1610615 63.0247056,68.0243395 C62.1614276,68.8368395 60.9934556,69.2938675 59.8254901,69.2430895 C58.6067336,69.2938675 57.4895526,68.8368395 56.6262616,68.0243395 C55.7629836,67.2118395 55.2551776,66.0438675 55.2551776,64.8759085 Z M12.9504875,63.7095841 C12.9504875,62.5845815 13.9088213,61.6679095 15.0754901,61.6679095 C16.2004928,61.6679095 17.1588181,62.5845815 17.1588181,63.7095841 C17.1588181,64.8345761 16.2004928,65.7512481 15.0754901,65.7095841 C13.9088213,65.7095841 12.9504875,64.9595788 12.9504875,63.7095841 Z M20.9504875,92.8762401 C20.9504875,91.7929121 21.9088213,90.8345761 23.0754901,90.8345761 C24.2004928,90.8345761 25.1588181,91.7929121 25.1588181,92.8762401 C25.1588181,94.0012428 24.2004928,94.9179148 23.0754901,94.9179148 C21.9504875,94.9179148 20.9921541,94.0012428 20.9504875,92.8762401 Z M34.9504875,126.126245 C34.9504875,125.042917 35.9088213,124.084581 37.0754901,124.084581 C38.2004928,124.084581 39.1588181,125.042917 39.1588181,126.126245 C39.1588181,127.251248 38.2004928,128.167909 37.0754901,128.167909 C35.9088213,128.167909 34.9504875,127.376251 34.9504875,126.126245 Z M160.950487,63.7095841 C160.950487,62.5845815 161.908821,61.6679095 163.07549,61.6679095 C164.200493,61.6679095 165.158818,62.5845815 165.158818,63.7095841 C165.158818,64.8345761 164.200493,65.7512481 163.07549,65.7095841 C161.908821,65.7095841 160.950487,64.9595788 160.950487,63.7095841 Z M150.950487,92.8762401 C150.950487,91.7929121 151.908821,90.8345761 153.07549,90.8345761 C154.200493,90.8345761 155.158818,91.7929121 155.158818,92.8762401 C155.158818,94.0012428 154.200493,94.9179148 153.07549,94.9179148 C151.950487,94.9179148 150.992154,94.0012428 150.950487,92.8762401 Z M139.950487,126.126245 C139.950487,125.042917 140.908821,124.084581 142.07549,124.084581 C143.200493,124.084581 144.158818,125.042917 144.158818,126.126245 C144.158818,127.251248 143.200493,128.167909 142.07549,128.167909 C140.908821,128.167909 139.950487,127.376251 139.950487,126.126245 Z M118.950487,156.126245 C118.950487,155.042917 119.908821,154.084581 121.07549,154.084581 C122.200493,154.084581 123.158818,155.042917 123.158818,156.126245 C123.158818,157.251248 122.200493,158.167909 121.07549,158.167909 C119.908821,158.167909 118.950487,157.376251 118.950487,156.126245 Z M55.9504875,156.126245 C55.9504875,155.042917 56.9088213,154.084581 58.0754901,154.084581 C59.2004928,154.084581 60.1588181,155.042917 60.1588181,156.126245 C60.1588181,157.251248 59.2004928,158.167909 58.0754901,158.167909 C56.9088213,158.167909 55.9504875,157.376251 55.9504875,156.126245 Z M54.9088235,92.8762401 C54.9088235,90.8345761 56.5338261,89.2929121 58.6588181,89.2929121 C60.7838208,89.2929121 62.4088235,90.8762401 62.4088235,92.8762401 C62.3671488,93.8762401 61.9921515,94.7929121 61.2838208,95.4595788 C60.5754901,96.1262455 59.6171541,96.5012428 58.6588181,96.4595788 C57.6588181,96.5012428 56.7421568,96.1262455 56.0338155,95.4595788 C55.3254901,94.7929121 54.9088235,93.8762401 54.9088235,92.8762401 Z M54.9088235,126.126245 C54.9088235,124.084581 56.5338261,122.542907 58.6588181,122.542907 C60.7838208,122.542907 62.4088235,124.084581 62.4088235,126.126245 C62.3671488,127.084581 61.9921515,128.042917 61.2838208,128.709584 C60.5754901,129.376251 59.6171541,129.751248 58.6588181,129.709584 C57.6588181,129.751248 56.7004821,129.376251 56.0338155,128.709584 C55.3254901,128.042917 54.9088235,127.084581 54.9088235,126.126245 Z M117.255178,64.8759085 C117.255178,62.3876175 119.23565,60.5087145 121.82549,60.5087145 C124.415331,60.5087145 126.395803,62.3876175 126.395803,64.8759085 C126.345012,66.0438675 125.887984,67.1610615 125.024706,68.0243395 C124.161428,68.8368395 122.993456,69.2938675 121.82549,69.2430895 C120.606734,69.2938675 119.489553,68.8368395 118.626262,68.0243395 C117.762984,67.2118395 117.255178,66.0438675 117.255178,64.8759085 Z M116.908823,92.8762401 C116.908823,90.8345761 118.533826,89.2929121 120.658818,89.2929121 C122.783821,89.2929121 124.408823,90.8762401 124.408823,92.8762401 C124.367149,93.8762401 123.992151,94.7929121 123.283821,95.4595788 C122.57549,96.1262455 121.617154,96.5012428 120.658818,96.4595788 C119.658818,96.5012428 118.742157,96.1262455 118.033815,95.4595788 C117.32549,94.7929121 116.908823,93.8762401 116.908823,92.8762401 Z M116.908823,126.126245 C116.908823,124.084581 118.533826,122.542907 120.658818,122.542907 C122.783821,122.542907 124.408823,124.084581 124.408823,126.126245 C124.367149,127.084581 123.992151,128.042917 123.283821,128.709584 C122.57549,129.376251 121.617154,129.751248 120.658818,129.709584 C119.658818,129.751248 118.700482,129.376251 118.033815,128.709584 C117.32549,128.042917 116.908823,127.084581 116.908823,126.126245 Z M117.117154,64.3345761 C117.117154,60.9179148 120.07549,58.0845815 123.658818,58.0845815 C127.242157,58.0845815 130.158818,60.9179148 130.158818,64.3345761 C130.158818,67.7512481 127.242157,70.5845815 123.658818,70.5845815 C120.07549,70.5845815 117.117154,67.9179148 117.117154,64.3345761 Z M51.1171541,64.3345761 C51.1171541,60.9179148 54.0754901,58.0845815 57.6588181,58.0845815 C61.2421568,58.0845815 64.1588181,60.9179148 64.1588181,64.3345761 C64.1588181,67.7512481 61.2421568,70.5845815 57.6588181,70.5845815 C54.0754901,70.5845815 51.1171541,67.9179148 51.1171541,64.3345761 Z M80.3254848,155.792912 C80.3254848,149.542907 85.3671488,145.292912 91.2421568,145.292912 C97.7421568,145.292912 102.158818,150.167909 102.158818,155.792912 C102.158818,161.376251 97.0754901,166.209573 91.2421568,166.209573 C84.7004821,166.209573 80.3254848,161.376251 80.3254848,155.792912 Z M78.3671488,126.126245 C78.3671488,118.626245 84.3671488,113.792912 91.2004928,113.792912 C99.0338155,113.792912 104.07549,119.584581 104.07549,126.126245 C104.07549,132.667909 98.0338155,138.459579 91.2004928,138.459579 C83.4088235,138.584581 78.3671488,132.834576 78.3671488,126.126245 Z M156.658818,23.2095735 C153.07549,16.8345761 155.492151,9.33457614 162.033815,5.75124814 C168.492151,2.29291214 176.533826,4.58458148 180.283821,10.8762401 C183.867159,17.2929121 181.408823,24.7929121 174.908823,28.3762508 C173.07549,29.4595788 170.992151,30.0429175 168.867159,30.0845815 C163.867159,30.1679095 159.200493,27.5429068 156.658818,23.2095735 Z M1.65881812,23.2095735 C-1.92450988,16.8345761 0.492151452,9.33457614 7.03381545,5.75124814 C13.4921515,2.29291214 21.5338261,4.58458148 25.2838208,10.8762401 C28.8671595,17.2929121 26.4088235,24.7929121 19.9088235,28.3762508 C18.0754901,29.4595788 15.9921515,30.0429175 13.8671595,30.0845815 C8.86715945,30.1679095 4.20049279,27.5429068 1.65881812,23.2095735 Z M78.0338155,99.5845815 C73.9504875,92.3762508 76.7004821,83.9595788 84.2421568,80.0845815 C91.4921515,76.1679095 100.533826,78.7929121 104.57549,86.0012428 C108.658818,93.1679095 105.867159,101.584581 98.4088235,105.501243 C96.2838208,106.751248 93.6588181,107.542907 91.5338261,107.542907 C86.1588181,107.376251 80.6171541,104.251248 78.0338155,99.5845815 Z M77.2004928,63.8762401 C72.7838208,56.2512481 75.7421568,47.1679095 83.7421568,42.9595788 C91.4921515,38.7512481 101.200493,41.5429068 105.533826,49.2095735 C109.950487,56.8762401 107.033815,65.9179148 99.0338155,70.1262455 C96.9088235,71.5429068 93.9921515,72.1679095 91.7004821,72.1679095 C85.9921515,72.1679095 80.1171541,68.7095841 77.2004928,63.8762401 Z M118.200493,23.8762401 C113.783821,16.2512481 116.742157,7.16790948 124.742157,2.95957881 C132.492151,-1.24875186 142.200493,1.54290681 146.533826,9.20957348 C150.950487,16.8762401 148.033815,25.9179148 140.033815,30.1262455 C137.908823,31.5429068 134.992151,32.1679095 132.700482,32.1679095 C126.992151,32.1679095 121.117154,28.7095841 118.200493,23.8762401 Z M36.2004928,24.8762401 C31.7838208,17.2512481 34.7421568,8.16790948 42.7421568,3.95957881 C50.4921515,-0.248751857 60.2004928,2.54290681 64.5338261,10.2095735 C68.9504875,17.8762401 66.0338155,26.9179148 58.0338155,31.1262455 C55.9088235,32.5429068 52.9921515,33.1679095 50.7004821,33.1679095 C44.9921515,33.1679095 39.1171541,29.7095841 36.2004928,24.8762401 Z M75.425199,25.3821416 C70.5247174,16.9218953 73.8071144,6.84355255 82.6834477,2.17423434 C91.2823897,-2.49508388 102.054199,0.602377726 106.862213,9.10886383 C111.762683,17.6153499 108.526513,27.6474647 99.6501802,32.3167829 C97.292413,33.8886277 94.0562439,34.5820942 91.5135413,34.5820942 C85.1799106,34.5820942 78.6613562,30.7449381 75.425199,25.3821416 Z" id="Shape" fill="#FF5111" fill-rule="nonzero"></path>
                <text id="Topcoin" font-family="Helvetica-Bold, Helvetica" font-size="130" font-weight="bold" fill="#000000">
                    <tspan x="239.950487" y="142.042917">Topcoin</tspan>
                </text>
            </g>
        </g>
    </g>
</svg>