<svg width="74" height="74" viewBox="0 0 74 74" fill="none" xmlns="http://www.w3.org/2000/svg">
<path d="M67.0625 55.5H60.125V48.5625C60.125 47.9492 59.8814 47.361 59.4477 46.9273C59.014 46.4936 58.4258 46.25 57.8125 46.25C57.1992 46.25 56.611 46.4936 56.1773 46.9273C55.7436 47.361 55.5 47.9492 55.5 48.5625V55.5H48.5625C47.9492 55.5 47.361 55.7436 46.9273 56.1773C46.4936 56.611 46.25 57.1992 46.25 57.8125C46.25 58.4258 46.4936 59.014 46.9273 59.4477C47.361 59.8814 47.9492 60.125 48.5625 60.125H55.5V67.0625C55.5 67.6758 55.7436 68.264 56.1773 68.6977C56.611 69.1314 57.1992 69.375 57.8125 69.375C58.4258 69.375 59.014 69.1314 59.4477 68.6977C59.8814 68.264 60.125 67.6758 60.125 67.0625V60.125H67.0625C67.6758 60.125 68.264 59.8814 68.6977 59.4477C69.1314 59.014 69.375 58.4258 69.375 57.8125C69.375 57.1992 69.1314 56.611 68.6977 56.1773C68.264 55.7436 67.6758 55.5 67.0625 55.5Z" fill="#5A5A67"/>
<path d="M39.3125 55.5H11.5625C10.9492 55.5 10.361 55.2564 9.92732 54.8227C9.49364 54.389 9.25 53.8008 9.25 53.1875V11.5625C9.25 10.9492 9.49364 10.361 9.92732 9.92732C10.361 9.49364 10.9492 9.25 11.5625 9.25H53.1875C53.8008 9.25 54.389 9.49364 54.8227 9.92732C55.2564 10.361 55.5 10.9492 55.5 11.5625V39.3125C55.5 39.9258 55.7436 40.514 56.1773 40.9477C56.611 41.3814 57.1992 41.625 57.8125 41.625C58.4258 41.625 59.014 41.3814 59.4477 40.9477C59.8814 40.514 60.125 39.9258 60.125 39.3125V11.5625C60.125 9.72256 59.3941 7.95798 58.0931 6.65695C56.792 5.35591 55.0274 4.625 53.1875 4.625H11.5625C9.72256 4.625 7.95798 5.35591 6.65695 6.65695C5.35591 7.95798 4.625 9.72256 4.625 11.5625V53.1875C4.625 55.0274 5.35591 56.792 6.65695 58.0931C7.95798 59.3941 9.72256 60.125 11.5625 60.125H39.3125C39.9258 60.125 40.514 59.8814 40.9477 59.4477C41.3814 59.014 41.625 58.4258 41.625 57.8125C41.625 57.1992 41.3814 56.611 40.9477 56.1773C40.514 55.7436 39.9258 55.5 39.3125 55.5Z" fill="#5A5A67"/>
<path d="M25.4375 25.4375C28.6304 25.4375 31.2188 22.8491 31.2188 19.6562C31.2188 16.4634 28.6304 13.875 25.4375 13.875C22.2446 13.875 19.6562 16.4634 19.6562 19.6562C19.6562 22.8491 22.2446 25.4375 25.4375 25.4375Z" fill="#5A5A67"/>
<path d="M16.8581 33.0456L13.875 36.0519V50.875H50.875V36.0519L40.9544 26.1081C40.7394 25.8914 40.4836 25.7193 40.2018 25.6019C39.92 25.4845 39.6178 25.4241 39.3125 25.4241C39.0072 25.4241 38.705 25.4845 38.4232 25.6019C38.1414 25.7193 37.8856 25.8914 37.6706 26.1081L25.4375 38.3644L20.1419 33.0456C19.9269 32.8289 19.6711 32.6568 19.3893 32.5394C19.1075 32.422 18.8053 32.3616 18.5 32.3616C18.1947 32.3616 17.8925 32.422 17.6107 32.5394C17.3289 32.6568 17.0731 32.8289 16.8581 33.0456Z" fill="#5A5A67"/>
</svg>
