<svg width="25" height="24" viewBox="0 0 25 24" fill="none" xmlns="http://www.w3.org/2000/svg">
<path d="M4.34607 20H3.59607C3.59607 20.1989 3.67509 20.3897 3.81574 20.5303C3.95639 20.671 4.14716 20.75 4.34607 20.75L4.34607 20ZM4.34607 16L3.81574 15.4697C3.67509 15.6103 3.59607 15.8011 3.59607 16H4.34607ZM15.2147 5.13134L14.6844 4.60101L14.6844 4.60101L15.2147 5.13134ZM17.4774 5.13134L16.9471 5.66167V5.66167L17.4774 5.13134ZM19.2147 6.8686L19.745 6.33827V6.33827L19.2147 6.8686ZM19.2147 9.13134L18.6844 8.60101V8.60101L19.2147 9.13134ZM8.34607 20L8.34607 20.75C8.54498 20.75 8.73575 20.671 8.8764 20.5303L8.34607 20ZM19.8829 7.691L20.5962 7.45924V7.45924L19.8829 7.691ZM19.8829 8.30895L19.1696 8.07719L19.8829 8.30895ZM16.0371 4.46313L15.8053 3.74984L16.0371 4.46313ZM16.6552 4.46313L16.8869 3.74984L16.6552 4.46313ZM12.8764 7.46966C12.5835 7.17677 12.1086 7.17677 11.8157 7.46966C11.5228 7.76256 11.5228 8.23743 11.8157 8.53032L12.8764 7.46966ZM15.8157 12.5303C16.1086 12.8232 16.5835 12.8232 16.8764 12.5303C17.1693 12.2374 17.1693 11.7626 16.8764 11.4697L15.8157 12.5303ZM5.09607 20V16H3.59607V20H5.09607ZM4.8764 16.5303L15.745 5.66167L14.6844 4.60101L3.81574 15.4697L4.8764 16.5303ZM16.9471 5.66167L18.6843 7.39893L19.745 6.33827L18.0077 4.60101L16.9471 5.66167ZM18.6844 8.60101L7.81574 19.4696L8.8764 20.5303L19.745 9.66167L18.6844 8.60101ZM8.34607 19.25L4.34607 19.25L4.34607 20.75L8.34607 20.75L8.34607 19.25ZM18.6843 7.39893C18.8911 7.60569 19.0139 7.72929 19.0977 7.82807C19.1759 7.92016 19.1753 7.94028 19.1696 7.92276L20.5962 7.45924C20.5163 7.21339 20.3796 7.02031 20.2412 6.85729C20.1085 6.70096 19.9343 6.52753 19.745 6.33827L18.6843 7.39893ZM19.745 9.66167C19.9343 9.47241 20.1085 9.29898 20.2413 9.14264C20.3797 8.97962 20.5164 8.78655 20.5962 8.54072L19.1696 8.07719C19.1753 8.05969 19.1759 8.0798 19.0977 8.17189C19.0139 8.27066 18.8911 8.39426 18.6844 8.60101L19.745 9.66167ZM19.1696 7.92276C19.186 7.97297 19.186 8.02698 19.1696 8.07719L20.5962 8.54072C20.7104 8.18924 20.7104 7.81071 20.5962 7.45924L19.1696 7.92276ZM15.745 5.66167C15.9518 5.45492 16.0754 5.33216 16.1741 5.24832C16.2662 5.17015 16.2863 5.17074 16.2688 5.17642L15.8053 3.74984C15.5595 3.82971 15.3664 3.96639 15.2034 4.10478C15.0471 4.2375 14.8736 4.41174 14.6844 4.60101L15.745 5.66167ZM18.0077 4.60101C17.8185 4.41179 17.6451 4.23753 17.4888 4.10484C17.3258 3.96644 17.1328 3.82972 16.8869 3.74984L16.4234 5.17642C16.4058 5.17072 16.4259 5.1701 16.518 5.24826C16.6167 5.33212 16.7403 5.45488 16.9471 5.66167L18.0077 4.60101ZM16.2688 5.17642C16.319 5.16011 16.3732 5.16011 16.4234 5.17642L16.8869 3.74984C16.5354 3.63563 16.1568 3.63563 15.8053 3.74984L16.2688 5.17642ZM11.8157 8.53032L15.8157 12.5303L16.8764 11.4697L12.8764 7.46966L11.8157 8.53032Z" fill="#B7B6CF"/>
</svg>
