<svg width="32" height="33" viewBox="0 0 32 33" fill="none" xmlns="http://www.w3.org/2000/svg">
<path d="M22.6667 27.1667C22.6667 24.9575 19.6819 23.1667 16 23.1667C12.3181 23.1667 9.33333 24.9575 9.33333 27.1667M28 23.1665C28 21.5263 26.3545 20.1166 24 19.4994M4 23.1665C4 21.5263 5.64546 20.1166 8 19.4994M24 14.1482C24.8183 13.4157 25.3333 12.3514 25.3333 11.1667C25.3333 8.95755 23.5425 7.16669 21.3333 7.16669C20.3089 7.16669 19.3743 7.55183 18.6667 8.18521M8 14.1482C7.18167 13.4157 6.66667 12.3514 6.66667 11.1667C6.66667 8.95755 8.45753 7.16669 10.6667 7.16669C11.6911 7.16669 12.6257 7.55183 13.3333 8.18521M16 19.1667C13.7909 19.1667 12 17.3758 12 15.1667C12 12.9575 13.7909 11.1667 16 11.1667C18.2091 11.1667 20 12.9575 20 15.1667C20 17.3758 18.2091 19.1667 16 19.1667Z" stroke="white" stroke-width="2" stroke-linecap="round" stroke-linejoin="round"/>
</svg>
